<svg width="100" height="100" viewBox="0 0 100 100" fill="none" xmlns="http://www.w3.org/2000/svg">
  <defs>
    <linearGradient id="logo_gradient" x1="0%" y1="0%" x2="100%" y2="100%">
      <stop offset="0%" stop-color="#5B1C6D" />
      <stop offset="100%" stop-color="#3B82F6" />
    </linearGradient>
  </defs>
  
  <!-- Outer Heart Structure -->
  <path 
    d="M50 88C50 88 10 60 10 35C10 20 22 10 35 10C42 10 47 14 50 18C53 14 58 10 65 10C78 10 90 20 90 35C90 60 50 88 50 88Z" 
    stroke="url(#logo_gradient)" 
    stroke-width="10" 
    stroke-linecap="round" 
    stroke-linejoin="round"
  />
  
  <!-- Inner Subtle Heart -->
  <path 
    d="M50 70C50 70 25 52 25 35C25 26 31 20 38 20C43 20 47 23 50 26C53 23 57 20 62 20C69 20 75 26 75 35C75 52 50 70 50 70Z" 
    fill="#5B1C6D" 
    fill-opacity="0.1"
  />
  
  <!-- Central Accent Heart -->
  <path 
    d="M50 32C50 32 40 26 40 18C40 14 43 11 46 11C48 11 49 12 50 13C51 12 52 11 54 11C57 11 60 14 60 18C60 26 50 32 50 32Z" 
    fill="#5B1C6D"
  />
</svg>
